PathFileType	4	(X/Y/Z)	C:/Users/opensim2020/Desktop/walking_exp_matlab/subject02_walking09_straight_01.trc																																																																																																																												
DataRate	CameraRate	NumFrames	NumMarkers	Units	OrigDataRate	OrigDataStartFrame	OrigNumFrames																																																																																																																								
100	100	4	42	mm	100	635	293																																																																																																																								
Frame#	Time	LFHD			RFHD			LBHD			RBHD			C7			T10			CLAV			STRN			RBAK			LSHO			LUPA			LELB			LFRM			LWRA			LWRB			LFIN			RSHO			RUPA			RELB			RFRM			RWRA			RWRB			RFIN			LASI			RASI			LPSI			RPSI			LTHI			LKNE			LTIB			LANK			LHEE			LTOE			RTHI			RKNE			RTIB			RANK			RHEE			RTOE			*39			*40			*41		
		X1	Y1	Z1	X2	Y2	Z2	X3	Y3	Z3	X4	Y4	Z4	X5	Y5	Z5	X6	Y6	Z6	X7	Y7	Z7	X8	Y8	Z8	X9	Y9	Z9	X10	Y10	Z10	X11	Y11	Z11	X12	Y12	Z12	X13	Y13	Z13	X14	Y14	Z14	X15	Y15	Z15	X16	Y16	Z16	X17	Y17	Z17	X18	Y18	Z18	X19	Y19	Z19	X20	Y20	Z20	X21	Y21	Z21	X22	Y22	Z22	X23	Y23	Z23	X24	Y24	Z24	X25	Y25	Z25	X26	Y26	Z26	X27	Y27	Z27	X28	Y28	Z28	X29	Y29	Z29	X30	Y30	Z30	X31	Y31	Z31	X32	Y32	Z32	X33	Y33	Z33	X34	Y34	Z34	X35	Y35	Z35	X36	Y36	Z36	X37	Y37	Z37	X38	Y38	Z38	X39	Y39	Z39	X40	Y40	Z40	X41	Y41	Z41	X42	Y42	Z42
																																																																																																																															
110	1.09	-467.38776	1758.35913	-1107.81067	-486.85303	1734.78784	-967.41827	-572.22449	1654.03284	-1137.77344	-602.07965	1626.41968	-999.94147	-615.7403	1524.04248	-1070.40771	-672.63867	1251.96985	-1067.63354	-475.64136	1456.2511	-1073.49084	-427.18033	1281.66565	-1068.06372	-680.18774	1352.01843	-1013.27185	-532.20154	1504.62927	-1245.34644	-509.40948	1310.71997	-1340.09961	-479.04407	1171.70764	-1359.12915	-423.73639	1050.27625	-1365.72644	-334.62463	952.64954	-1318.59277	-371.26968	938.2807	-1360.1687	-329.5896	886.15643	-1355.41235	-548.79242	1485.10583	-880.16394	-594.82513	1296.84766	-802.54437	-587.28772	1150.39258	-783.21759	-556.74445	1033.72546	-761.08679	-500.29785	909.70087	-776.20844	-550.03119	903.84131	-748.71289	-510.0033	842.99506	-743.08197	-448.24432	987.23779	-1202.40344	-447.58551	978.55182	-944.75458	-656.5437	1032.4707	-1115.79517	-661.55835	1030.60388	-1001.71875	-522.08771	675.25427	-1240.82556	-565.36865	474.89719	-1207.06494	-631.30554	290.15701	-1203.43286	-638.65631	67.79787	-1160.19104	-675.64667	40.45711	-1109.17078	-482.52844	31.85497	-1173.34814	-458.9989	682.98297	-853.34772	-397.12793	487.60043	-870.42078	-470.57843	316.08548	-869.65436	-516.11646	128.47441	-902.16907	-543.77411	73.77158	-964.73175	-385.98285	50.71873	-855.92969	-595.2533	1793.01184	-1036.14038	NaN	NaN	NaN	NaN	NaN	NaN
111	1.1	-458.32306	1757.63623	-1107.18225	-477.51999	1734.08228	-966.48651	-563.29999	1653.5022	-1137.41895	-593.42816	1625.83923	-999.91559	-607.09662	1523.57568	-1070.32715	-664.61182	1251.63403	-1067.52026	-467.14594	1455.4552	-1073.276	-419.13593	1280.78223	-1068.12463	-672.83691	1351.98865	-1013.46539	-523.09906	1504.39392	-1244.99316	-498.31146	1311.14832	-1340.16956	-465.71564	1172.52124	-1359.41833	-407.79767	1052.31128	-1365.23413	-317.08737	956.60663	-1317.69275	-353.17267	941.18842	-1359.26575	-310.40234	890.09167	-1354.17334	-540.7229	1484.1792	-880.18866	-587.79095	1295.96045	-802.7782	-581.4649	1149.54443	-783.68555	-551.88013	1032.71741	-761.36652	-496.19968	908.50647	-776.25604	-546.28723	902.82251	-748.95111	-507.07559	841.71869	-743.19214	-441.14368	986.26379	-1202.5575	-439.53757	978.03986	-944.6571	-649.12238	1031.89673	-1115.30261	-653.9433	1029.97266	-1001.45929	-517.19116	674.62756	-1240.58777	-561.68469	474.48468	-1206.67859	-629.13971	290.35828	-1203.10229	-638.43005	67.83936	-1159.93201	-675.73602	40.96532	-1108.95105	-482.39914	31.79993	-1173.43542	-449.37976	682.92413	-853.44446	-386.39551	487.73096	-871.1687	-451.36148	312.78543	-868.94598	-489.02661	123.07375	-900.21313	-515.24634	67.35763	-962.2417	-354.86377	51.23344	-855.39423	-586.34991	1792.28125	-1035.70593	NaN	NaN	NaN	NaN	NaN	NaN
112	1.11	-449.14624	1756.84705	-1106.4917	-468.79211	1733.20105	-965.74554	-554.36493	1652.95044	-1137.06543	-585.06842	1625.24878	-999.95795	-598.19543	1522.97412	-1070.23877	-656.54858	1251.28271	-1067.25793	-458.62119	1454.58679	-1072.92017	-411.06271	1279.76672	-1068.02148	-663.90753	1351.26563	-1013.47394	-514.01611	1503.99194	-1244.66431	-487.4209	1311.32776	-1339.83496	-452.57492	1173.24963	-1359.5022	-392.29492	1054.14819	-1364.81311	-300.15939	960.349	-1316.30115	-335.56946	944.11353	-1358.26624	-291.66483	893.87537	-1352.85876	-532.67432	1483.06299	-880.11163	-580.73322	1295.38684	-802.86719	-576.57477	1148.91968	-783.57477	-546.97388	1031.74536	-761.54761	-492.23984	907.13129	-776.26306	-542.41534	901.85052	-749.08917	-503.6019	840.35742	-743.19702	-433.99631	985.44849	-1202.42261	-431.40875	977.44415	-944.51508	-641.65411	1031.2428	-1114.776	-646.1723	1029.27856	-1001.09943	-512.1275	673.92535	-1240.15283	-557.99615	474.10187	-1206.25256	-627.05353	290.35498	-1202.68762	-638.1319	68.19588	-1159.75403	-675.63586	41.32111	-1108.74194	-482.15536	31.61398	-1173.48706	-440.34991	682.75171	-853.37634	-375.19043	487.45779	-872.06317	-432.56808	309.50702	-868.15735	-461.85837	118.0862	-898.26129	-486.255	61.32374	-959.57861	-324.07425	52.20807	-854.80951	-577.21118	1791.77966	-1035.1554	NaN	NaN	NaN	NaN	NaN	NaN
113	1.12	-440.0585	1755.96851	-1105.67004	-459.86044	1732.27246	-965.05414	-545.33807	1652.31885	-1136.54956	-575.95007	1624.35889	-999.11499	-589.62158	1522.36072	-1069.9093	-648.37659	1250.67859	-1066.89197	-450.12378	1453.66296	-1072.50024	-402.95401	1278.70435	-1067.72888	-656.35077	1350.87427	-1013.52466	-504.96481	1503.56531	-1244.07251	-476.6907	1311.51929	-1339.5094	-439.78967	1173.85327	-1359.27124	-377.09003	1055.91931	-1364.27344	-283.36575	963.98322	-1315.43506	-318.33585	947.22229	-1357.29004	-273.43274	897.80927	-1351.58997	-524.22974	1482.08838	-879.59198	-574.64209	1294.54395	-803.12439	-570.45874	1148.25427	-783.88531	-542.04706	1030.57214	-761.65619	-488.12479	905.68872	-776.11102	-538.63574	900.64917	-749.25909	-500.20801	839.00336	-743.13483	-426.65613	984.75775	-1202.10364	-423.19189	976.73883	-944.27832	-634.04883	1030.59998	-1114.19824	-638.21356	1028.49011	-1000.67511	-506.93756	673.22583	-1239.82874	-554.30316	473.69266	-1205.82495	-625.03955	290.73196	-1202.18726	-637.84399	68.47583	-1159.5127	-675.50726	41.64017	-1108.44226	-482.04358	31.53789	-1173.54077	-431.35333	682.26971	-853.22015	-364.17072	486.57651	-872.96338	-413.98123	306.40381	-867.33386	-435.13983	113.91436	-895.8833	-457.29062	55.92277	-957.06171	-293.72223	53.75076	-854.15503	-568.22015	1791.00183	-1034.50293	NaN	NaN	NaN	NaN	NaN	NaN
